<?xml version="1.0" encoding="UTF-8"?>
<svg width="160px" height="600px" viewBox="0 0 160 600" version="1.1" xmlns="http://www.w3.org/2000/svg" xmlns:xlink="http://www.w3.org/1999/xlink">
    <!-- Generator: sketchtool 51.3 (57544) - http://www.bohemiancoding.com/sketch -->
    <title>393D8BEF-557D-4AB7-BF56-47EDF0CBC235</title>
    <desc>Created with sketchtool.</desc>
    <defs></defs>
    <g id="Page-1" stroke="none" stroke-width="1" fill="none" fill-rule="evenodd">
        <g id="1244-Fallback-Banner" transform="translate(-1089.000000, -544.000000)">
            <g id="Banner-/-160x600" transform="translate(1089.000000, 544.000000)">
                <g id="Background" transform="translate(-264.000000, -63.000000)">
                    <g id="Shapes">
                        <rect id="Mask" fill="#73CFCF" x="264" y="63" width="160" height="600"></rect>
                        <path d="M399.306288,88.1248589 C380.932029,127.311307 348.217658,115.112947 345.530271,70.6956693 C342.842885,26.278392 453.045665,-1.11574386 452.389926,32.8086734 C451.734186,66.7320738 409.105862,67.2254874 399.306288,88.1248589 Z" id="Stroke-1" fill="#004BBE" transform="translate(398.937374, 64.675061) scale(-1, 1) rotate(23.000000) translate(-398.937374, -64.675061) "></path>
                        <ellipse id="Oval" fill="#4DC2C2" fill-rule="nonzero" opacity="0.800000012" transform="translate(277.045066, 494.817222) rotate(-37.000000) translate(-277.045066, -494.817222) " cx="277.045066" cy="494.817222" rx="183" ry="217.5"></ellipse>
                        <ellipse id="Oval-Copy" fill="#008F8F" fill-rule="nonzero" opacity="0.5" transform="translate(285.088189, 748.799008) rotate(-37.000000) translate(-285.088189, -748.799008) " cx="285.088189" cy="748.799008" rx="178" ry="237.5"></ellipse>
                        <path d="M176.27576,653.988602 C158.358965,697.438218 187.375804,746.244685 255.288528,703.45304 C276.087775,690.347483 320.270762,707.47356 353.824261,683.506964 C365.646703,675.062429 392.336301,643.073623 389.291168,638.18261 C370.429255,607.887096 303.804427,650.597746 275.613914,635.945402 C245.793951,620.446133 194.192556,610.538986 176.27576,653.988602 Z" id="Path-2" fill="#FF5C6F" transform="translate(280.310050, 671.372891) rotate(18.000000) translate(-280.310050, -671.372891) "></path>
                    </g>
                    <g id="il-counterfeit-money" transform="translate(251.000000, 63.000000)">
                        <circle id="Oval-5" fill="#F09E2A" cx="78.8000015" cy="116.210395" r="25.200001"></circle>
                        <circle id="Oval-5" fill="#FFC343" cx="84.2000017" cy="116.210395" r="25.200001"></circle>
                        <circle id="Oval-5" fill="#F8AA3C" cx="84.2000017" cy="116.210395" r="19.8000008"></circle>
                        <path d="M82.8138164,101.706373 C82.8138164,100.557973 83.7246164,99.6471726 84.8730165,99.6471726 C86.0214165,99.6471726 86.9322166,100.557973 86.9322166,101.706373 L86.9322166,102.260773 C89.0706166,102.577573 90.9714167,103.211173 92.6742168,104.161573 C93.4266168,104.597173 94.0998168,105.349573 94.0998168,106.537573 C94.0998168,108.042373 92.9118168,109.190773 91.4070167,109.190773 C90.9318167,109.190773 90.4566167,109.071973 90.0210167,108.834373 C88.9122166,108.240373 87.8034166,107.765173 86.7342165,107.487973 L86.7342165,113.507173 C92.7534168,115.130773 95.3274169,117.585973 95.3274169,122.021173 C95.3274169,126.456374 91.9218168,129.307574 86.9322166,129.861974 L86.9322166,131.960774 C86.9322166,133.109174 86.0214165,134.019974 84.8730165,134.019974 C83.7246164,134.019974 82.8138164,133.109174 82.8138164,131.960774 L82.8138164,129.822374 C80.0022163,129.465974 77.3490162,128.475974 75.0126161,127.050374 C74.181016,126.535574 73.666216,125.743574 73.666216,124.674374 C73.666216,123.129974 74.8542161,121.981573 76.3986161,121.981573 C76.9134162,121.981573 77.4678162,122.179573 77.9430162,122.496373 C79.6062163,123.565574 81.1902163,124.317974 83.0118164,124.713974 L83.0118164,118.417573 C77.3094162,116.873173 74.4978161,114.695173 74.4978161,109.982773 C74.4978161,105.626773 77.8242162,102.696373 82.8138164,102.181573 L82.8138164,101.706373 Z M89.5458167,122.337973 C89.5458167,121.031173 88.8726166,120.159973 86.7342165,119.407573 L86.7342165,124.911974 C88.5954166,124.634774 89.5458167,123.763574 89.5458167,122.337973 Z M80.2794163,109.626373 C80.2794163,110.853973 80.8338163,111.685573 83.0118164,112.477573 L83.0118164,107.131573 C81.1110163,107.408773 80.2794163,108.359173 80.2794163,109.626373 Z" id="$" fill="#FFC343" transform="translate(84.496816, 116.833573) rotate(-6.000000) translate(-84.496816, -116.833573) "></path>
                        <circle id="Oval-5" fill="#F09E2A" cx="78.8000015" cy="418.210395" r="25.200001"></circle>
                        <circle id="Oval-5" fill="#FFC343" cx="84.2000017" cy="418.210395" r="25.200001"></circle>
                        <circle id="Oval-5" fill="#F8AA3C" cx="84.2000017" cy="418.210395" r="19.8000008"></circle>
                        <path d="M82.8138164,403.706373 C82.8138164,402.557973 83.7246164,401.647173 84.8730165,401.647173 C86.0214165,401.647173 86.9322166,402.557973 86.9322166,403.706373 L86.9322166,404.260773 C89.0706166,404.577573 90.9714167,405.211173 92.6742168,406.161573 C93.4266168,406.597173 94.0998168,407.349573 94.0998168,408.537573 C94.0998168,410.042373 92.9118168,411.190773 91.4070167,411.190773 C90.9318167,411.190773 90.4566167,411.071973 90.0210167,410.834373 C88.9122166,410.240373 87.8034166,409.765173 86.7342165,409.487973 L86.7342165,415.507173 C92.7534168,417.130773 95.3274169,419.585973 95.3274169,424.021173 C95.3274169,428.456374 91.9218168,431.307574 86.9322166,431.861974 L86.9322166,433.960774 C86.9322166,435.109174 86.0214165,436.019974 84.8730165,436.019974 C83.7246164,436.019974 82.8138164,435.109174 82.8138164,433.960774 L82.8138164,431.822374 C80.0022163,431.465974 77.3490162,430.475974 75.0126161,429.050374 C74.181016,428.535574 73.666216,427.743574 73.666216,426.674374 C73.666216,425.129974 74.8542161,423.981573 76.3986161,423.981573 C76.9134162,423.981573 77.4678162,424.179573 77.9430162,424.496373 C79.6062163,425.565574 81.1902163,426.317974 83.0118164,426.713974 L83.0118164,420.417573 C77.3094162,418.873173 74.4978161,416.695173 74.4978161,411.982773 C74.4978161,407.626773 77.8242162,404.696373 82.8138164,404.181573 L82.8138164,403.706373 Z M89.5458167,424.337973 C89.5458167,423.031173 88.8726166,422.159973 86.7342165,421.407573 L86.7342165,426.911974 C88.5954166,426.634774 89.5458167,425.763574 89.5458167,424.337973 Z M80.2794163,411.626373 C80.2794163,412.853973 80.8338163,413.685573 83.0118164,414.477573 L83.0118164,409.131573 C81.1110163,409.408773 80.2794163,410.359173 80.2794163,411.626373 Z" id="$" fill="#FFC343" transform="translate(84.496816, 418.833573) rotate(-6.000000) translate(-84.496816, -418.833573) "></path>
                        <circle id="Oval-5" fill="#FAAF44" cx="106.200001" cy="394.200001" r="25.200001"></circle>
                        <circle id="Oval-5" fill="#FAAF44" cx="25.200001" cy="43.200001" r="25.200001"></circle>
                        <circle id="Oval-5" fill="#FFD782" cx="111.200001" cy="394.200001" r="25.200001"></circle>
                        <circle id="Oval-5" fill="#FFD782" cx="31.200001" cy="43.200001" r="25.200001"></circle>
                        <circle id="Oval-5" fill="#FFC343" cx="111.800001" cy="393.800001" r="19.8000008"></circle>
                        <circle id="Oval-5" fill="#FFC343" cx="30.8000008" cy="43.8000008" r="19.8000008"></circle>
                        <path d="M109.749482,378.9557 C109.749482,377.8073 110.660282,376.8965 111.808682,376.8965 C112.957082,376.8965 113.867882,377.8073 113.867882,378.9557 L113.867882,379.5101 C116.006283,379.8269 117.907083,380.4605 119.609883,381.4109 C120.362283,381.8465 121.035483,382.5989 121.035483,383.7869 C121.035483,385.2917 119.847483,386.4401 118.342683,386.4401 C117.867483,386.4401 117.392283,386.3213 116.956683,386.0837 C115.847883,385.4897 114.739082,385.0145 113.669882,384.7373 L113.669882,390.7565 C119.689083,392.3801 122.263083,394.8353 122.263083,399.2705 C122.263083,403.705701 118.857483,406.556901 113.867882,407.111301 L113.867882,409.210101 C113.867882,410.358501 112.957082,411.269301 111.808682,411.269301 C110.660282,411.269301 109.749482,410.358501 109.749482,409.210101 L109.749482,407.071701 C106.937882,406.715301 104.284682,405.725301 101.948282,404.299701 C101.116682,403.784901 100.601882,402.992901 100.601882,401.923701 C100.601882,400.3793 101.789882,399.2309 103.334282,399.2309 C103.849082,399.2309 104.403482,399.4289 104.878682,399.7457 C106.541882,400.8149 108.125882,401.567301 109.947482,401.963301 L109.947482,395.6669 C104.245082,394.1225 101.433482,391.9445 101.433482,387.2321 C101.433482,382.8761 104.759882,379.9457 109.749482,379.4309 L109.749482,378.9557 Z M116.481483,399.5873 C116.481483,398.2805 115.808283,397.4093 113.669882,396.6569 L113.669882,402.161301 C115.531083,401.884101 116.481483,401.0129 116.481483,399.5873 Z M107.215082,386.8757 C107.215082,388.1033 107.769482,388.9349 109.947482,389.7269 L109.947482,384.3809 C108.046682,384.6581 107.215082,385.6085 107.215082,386.8757 Z" id="$" fill="#FFD782" transform="translate(111.432482, 394.082900) rotate(14.000000) translate(-111.432482, -394.082900) "></path>
                        <path d="M28.7494823,28.9556996 C28.7494823,27.8072996 29.6602823,26.8964995 30.8086824,26.8964995 C31.9570824,26.8964995 32.8678824,27.8072996 32.8678824,28.9556996 L32.8678824,29.5100996 C35.0062825,29.8268997 36.9070826,30.4604997 38.6098827,31.4108997 C39.3622827,31.8464997 40.0354827,32.5988998 40.0354827,33.7868998 C40.0354827,35.2916999 38.8474827,36.4400999 37.3426826,36.4400999 C36.8674826,36.4400999 36.3922826,36.3212999 35.9566826,36.0836999 C34.8478825,35.4896999 33.7390825,35.0144999 32.6698824,34.7372999 L32.6698824,40.7565001 C38.6890827,42.3801002 41.2630828,44.8353003 41.2630828,49.2705004 C41.2630828,53.7057006 37.8574826,56.5569007 32.8678824,57.1113007 L32.8678824,59.2101008 C32.8678824,60.3585009 31.9570824,61.2693009 30.8086824,61.2693009 C29.6602823,61.2693009 28.7494823,60.3585009 28.7494823,59.2101008 L28.7494823,57.0717007 C25.9378822,56.7153007 23.2846821,55.7253007 20.948282,54.2997006 C20.1166819,53.7849006 19.6018819,52.9929006 19.6018819,51.9237005 C19.6018819,50.3793005 20.789882,49.2309004 22.334282,49.2309004 C22.8490821,49.2309004 23.4034821,49.4289004 23.8786821,49.7457004 C25.5418822,50.8149005 27.1258822,51.5673005 28.9474823,51.9633005 L28.9474823,45.6669003 C23.2450821,44.1225002 20.433482,41.9445001 20.433482,37.2321 C20.433482,32.8760998 23.7598821,29.9456997 28.7494823,29.4308996 L28.7494823,28.9556996 Z M35.4814826,49.5873004 C35.4814826,48.2805004 34.8082825,47.4093004 32.6698824,46.6569003 L32.6698824,52.1613005 C34.5310825,51.8841005 35.4814826,51.0129005 35.4814826,49.5873004 Z M26.2150822,36.8756999 C26.2150822,38.1033 26.7694822,38.9349 28.9474823,39.7269 L28.9474823,34.3808998 C27.0466822,34.6580998 26.2150822,35.6084999 26.2150822,36.8756999 Z" id="$" fill="#FFD782" transform="translate(30.432482, 44.082900) rotate(-37.000000) translate(-30.432482, -44.082900) "></path>
                        <circle id="Oval-4-Copy-2" fill="#FFFFFF" opacity="0.300000012" cx="55" cy="458" r="5"></circle>
                        <circle id="Oval-4-Copy-2" fill="#FFFFFF" opacity="0.300000012" cx="38.5" cy="131.5" r="3.5"></circle>
                        <circle id="Oval-4-Copy-2" fill="#FFFFFF" opacity="0.299999982" cx="147.090909" cy="426.085366" r="4"></circle>
                        <path d="M141.208178,449.495905 C135.716467,448.153791 134.851189,447.287268 133.504095,441.791822 C133.392045,441.324946 132.973724,441 132.496887,441 C132.021296,441 131.602975,441.324946 131.490925,441.791822 C130.148811,447.283533 129.287268,448.143831 123.791822,449.490925 C123.324946,449.602975 123,450.021296 123,450.498132 C123,450.973724 123.324946,451.392045 123.791822,451.504095 C129.282288,452.851189 130.143831,453.712732 131.490925,459.208178 C131.602975,459.675054 132.021296,460 132.496887,460 C132.973724,460 133.392045,459.675054 133.504095,459.208178 C134.851189,453.716467 135.716467,452.851189 141.208178,451.504095 C141.675054,451.392045 142,450.973724 142,450.498132 C142,450.021296 141.670074,449.612935 141.208178,449.495905 L141.208178,449.495905 Z" id="ico-asset-2" fill="#FFFFFF" opacity="0.6"></path>
                        <path d="M60.4999017,375.365834 C57.0314527,374.518184 56.4849617,373.970906 55.6341655,370.500098 C55.5633969,370.205229 55.299194,370 54.9980342,370 C54.6976607,370 54.4334578,370.205229 54.3626892,370.500098 C53.5150383,373.968547 52.9709062,374.511893 49.5000983,375.362689 C49.205229,375.433458 49,375.697661 49,375.998821 C49,376.299194 49.205229,376.563397 49.5000983,376.634166 C52.967761,377.484962 53.5118931,378.029094 54.3626892,381.499902 C54.4334578,381.794771 54.6976607,382 54.9980342,382 C55.299194,382 55.5633969,381.794771 55.6341655,381.499902 C56.4849617,378.031453 57.0314527,377.484962 60.4999017,376.634166 C60.794771,376.563397 61,376.299194 61,375.998821 C61,375.697661 60.7916257,375.439748 60.4999017,375.365834 L60.4999017,375.365834 Z" id="ico-asset-2" fill="#FFFFFF" opacity="0.300000012"></path>
                        <path d="M136.333202,101.154446 C131.708604,100.024245 130.979949,99.2945416 129.845554,94.6667977 C129.751196,94.2736387 129.398925,94 128.997379,94 C128.596881,94 128.24461,94.2736387 128.150252,94.6667977 C127.020051,99.2913964 126.294542,100.015857 121.666798,101.150252 C121.273639,101.24461 121,101.596881 121,101.998427 C121,102.398925 121.273639,102.751196 121.666798,102.845554 C126.290348,103.979949 127.015857,104.705458 128.150252,109.333202 C128.24461,109.726361 128.596881,110 128.997379,110 C129.398925,110 129.751196,109.726361 129.845554,109.333202 C130.979949,104.708604 131.708604,103.979949 136.333202,102.845554 C136.726361,102.751196 137,102.398925 137,101.998427 C137,101.596881 136.722168,101.252998 136.333202,101.154446 L136.333202,101.154446 Z" id="ico-asset-2" fill="#FFFFFF" opacity="0.400000006"></path>
                        <circle id="Oval-4-Copy-4" fill="#FFFFFF" opacity="0.2" cx="52" cy="4" r="4"></circle>
                        <circle id="Oval-4-Copy-4" fill="#FFFFFF" opacity="0.6" cx="35.5" cy="404.5" r="2.5"></circle>
                        <circle id="Oval-4-Copy-4" fill="#FFFFFF" opacity="0.600000024" cx="112" cy="79" r="2"></circle>
                    </g>
                </g>
            </g>
        </g>
    </g>
</svg>