<svg viewBox="0 0 37 24" fill="none" xmlns="http://www.w3.org/2000/svg">
  <path
    d="M32.2938 14.8093C31.5432 14.8093 30.8791 14.0704 30.8791 12.1194C30.8791 9.96157 32.1495 6.97606 34.1128 6.97606C35.0078 6.97606 35.3543 7.8924 35.3543 9.07479C35.3832 11.3804 33.9973 14.8093 32.2938 14.8093ZM24.7333 12.9845C24.7306 12.999 24.7302 13.0131 24.7253 13.027C24.7098 13.0714 24.6869 13.116 24.6606 13.1549C24.1415 13.921 23.3859 14.4546 22.7949 14.4546C22.2174 14.4546 21.5245 13.8339 21.5245 12.7106C21.5245 10.6414 22.5928 6.9465 24.9026 6.9465C25.1335 6.9465 25.3645 6.97606 25.5955 7.06474C25.8159 7.12116 25.7481 7.44338 25.7071 7.66721L24.7333 12.9845ZM21.5823 21.9628C21.1492 21.9628 20.5717 21.608 20.5717 20.9282C20.5717 19.7754 21.7266 18.9477 23.4012 18.0313C23.5744 17.9427 23.7765 18.0905 23.7188 18.2974C23.1125 20.7213 22.6217 21.9628 21.5823 21.9628ZM11.3038 7.00562C11.708 7.00562 11.8812 7.44901 11.8812 7.86284C11.8235 9.25214 10.6974 10.6414 8.8785 11.9125C8.70527 12.0307 8.50316 11.8829 8.53203 11.676C8.73414 9.99113 9.48481 7.00562 11.3038 7.00562ZM6.25113 1.44842C6.48211 1.44842 6.68421 1.71445 6.68421 2.06917C6.68421 2.71948 5.44271 5.64588 3.85474 8.80875C3.73925 9.04523 3.36391 8.92699 3.42166 8.66095C4.23008 4.67041 5.61594 1.44842 6.25113 1.44842ZM33.6508 5.2616C30.3883 5.2616 28.1074 9.45906 28.1074 12.7993C28.1074 13.2131 28.1362 13.627 28.2229 14.0112C28.2774 14.1786 28.063 14.2977 27.918 14.3976C27.6347 14.5929 27.3369 14.7991 27.0391 14.9867C26.8659 15.0754 26.6638 14.9571 26.6926 14.7502C26.6926 14.6615 26.7215 14.5433 26.7504 14.4251L28.3383 5.82324C28.3975 5.64141 28.1427 5.52976 27.9625 5.46568C27.8142 5.41295 27.6486 5.37984 27.4722 5.37984C27.068 5.37984 26.6349 5.52764 26.3173 5.85279C26.2307 5.94147 26.0863 5.94147 25.9997 5.88235C25.5377 5.49808 24.9892 5.32072 24.2385 5.32072C21.6111 5.32072 19.2147 9.25214 19.1859 12.888C19.1859 13.154 19.2147 13.4496 19.2436 13.7748C19.2436 13.9465 19.0891 14.0648 18.9448 14.1579C18.464 14.4682 17.8972 14.6911 17.3958 14.6911C16.8472 14.6911 16.5008 14.3068 16.7606 13.0653L17.9155 7.12386C17.9444 7.00562 18.031 6.9465 18.1465 6.9465H19.7922C20.3985 6.9465 20.7161 6.5031 20.7161 5.88235C20.7161 5.76412 20.6006 5.64588 20.4851 5.64588H18.5218C18.3774 5.64588 18.262 5.49808 18.2908 5.35028L18.8394 2.68992C18.8683 2.57168 18.8105 2.483 18.7239 2.42388C18.4929 2.30565 18.1753 2.21697 17.8577 2.21697C17.0782 2.21697 16.2698 2.60124 16.0388 3.60627L15.6635 5.4094C15.6346 5.52764 15.548 5.58676 15.4325 5.58676H15.2015C14.5952 5.58676 14.2776 6.03015 14.2776 6.6509C14.2776 6.76914 14.3931 6.88738 14.5086 6.88738H15.086C15.2304 6.88738 15.3459 7.03518 15.317 7.18297L14.2182 12.4614C14.2001 12.5485 14.1954 12.647 14.1332 12.7106C13.1805 13.8634 11.6214 14.7798 10.2355 14.7798C9.43033 14.7798 8.81209 14.4449 8.56993 13.6029C8.51319 13.4057 8.44909 13.1515 8.61865 13.0358C12.5741 10.7597 13.4403 9.31126 13.498 7.38989C13.5269 6.38487 13.0938 5.2616 11.246 5.2616C7.86797 5.2616 6.02015 9.8729 5.90467 12.7402C5.90467 13.0949 5.90467 13.42 5.93354 13.7156C5.93354 13.8043 5.90467 13.893 5.81805 13.9521C5.21173 14.3068 4.5188 14.5433 3.94136 14.5433C3.19068 14.5433 2.58437 14.0999 2.7576 12.9471C2.78647 12.7106 2.81534 12.415 2.84422 12.1785C2.84422 12.1171 2.89078 12.0621 2.92378 12.0103C5.67187 7.69454 7.86797 3.62518 7.86797 1.89181C7.89685 0.798108 7.08843 0 6.0779 0C3.24843 0 1.05414 5.43896 0.0436154 13.4496C-0.245106 15.7848 0.938653 16.7307 2.44001 16.7307C3.62376 16.7307 5.0385 16.1986 6.13564 15.3119C6.25113 15.2232 6.39549 15.2527 6.45324 15.371C7.05955 16.2873 8.04121 16.7307 9.19609 16.7307C10.6397 16.7307 12.1699 16.0508 13.4692 14.8093C13.6135 14.6615 13.8445 14.7502 13.8445 14.9571C13.9311 16.2282 14.6818 16.7307 15.6635 16.7307C16.8761 16.7307 18.2331 16.0213 19.2436 15.0754C19.3591 14.9571 19.5323 15.0163 19.6189 15.1641C20.0232 16.0508 20.6872 16.7307 21.7555 16.7307C22.5062 16.7307 23.2568 16.2578 23.892 15.5188C24.0653 15.3414 24.354 15.4892 24.2962 15.7257C24.2775 15.8407 24.2467 15.9556 24.2194 16.0706C24.1902 16.1939 24.1781 16.3478 24.0653 16.4056C22.4195 17.2923 19.3014 18.8294 19.3014 21.3716C19.3014 22.7313 20.3985 23.9433 21.8132 23.9433C24.9107 23.9433 25.4629 20.7648 26.3054 16.7754C26.3323 16.6478 26.3456 16.4945 26.4617 16.4351C27.1546 16.0508 27.8475 15.5779 28.3672 15.1936C28.4827 15.1049 28.6271 15.1345 28.6848 15.2527C29.1756 16.1395 30.0418 16.7012 31.2833 16.7012C34.6614 16.7012 37 12.5037 37 9.22259C37 7.06474 36.0183 5.2616 33.6508 5.2616Z"
    fill="white" />
</svg>