<svg width="1080" height="300" viewBox="0 0 1080 300" fill="none" xmlns="http://www.w3.org/2000/svg">
<g clip-path="url(#clip0)">
<rect width="1080" height="300" fill="#FFF1F3"/>
<path fill-rule="evenodd" clip-rule="evenodd" d="M853.16 -99C810.71 -60.5473 754.31 -36.4146 697.158 -26.953C616.512 -13.6058 533.855 -25.9625 453.954 -43.2377C414.432 -51.777 374.19 -61.5717 334.026 -56.8923C291.414 -51.9223 252.499 -31.0691 215.364 -9.63499C214.645 -9.21663 213.935 -8.79827 213.216 -8.39678C219.275 -2.66692 225.557 2.72143 232.703 6.68381C265.893 25.0691 299.424 4.95007 334.231 8.18665C359.016 10.4922 382.013 26.8369 392.291 49.4664C402.57 72.0871 399.737 100.113 385.128 120.241C377.811 130.326 367.926 138.361 360.676 148.489C353.419 158.634 349.046 172.34 354.54 183.526C361.241 197.19 379.805 200.904 394.491 196.822C409.177 192.732 421.492 182.997 434.861 175.687C473.656 154.467 523.414 154.74 561.978 176.379C575.671 184.064 587.79 194.363 597.821 206.412C607.526 206.088 616.991 204.491 626.046 200.52C688.282 173.177 672.629 64.2395 734.258 35.564C765.976 20.7993 803.453 35.598 832.936 54.402C862.42 73.1972 891.005 96.843 925.726 101.172C976.503 107.526 1022.17 70.678 1055.55 31.9775C1063.77 22.4561 1071.83 12.5502 1080 2.74705V-99H853.16Z" fill="#F5D130"/>
<path fill-rule="evenodd" clip-rule="evenodd" d="M925.727 101.177C891.006 96.8392 862.421 73.2021 832.937 54.3981C803.454 35.5945 765.977 20.8042 734.259 35.5604C672.63 64.2441 688.284 173.182 626.047 200.525C616.993 204.495 607.527 206.084 597.822 206.409C570.726 207.305 541.756 198.304 514.669 203.625C475.54 211.301 448.444 246.637 412.85 264.579C392.472 274.843 370.152 278.976 347.395 278.934C319.974 278.882 291.92 272.76 265.851 263.981C218.164 247.927 173.207 223.598 124.167 212.301C91.1062 204.675 36.1015 202.66 0.00244141 222.087V297.379V373.841C26.4564 373.568 56.8984 400.68 74.4088 417.341C114.899 455.845 142.397 510.548 193.387 533.494C239.825 554.39 293.649 543.348 344.426 547.404C344.58 547.413 344.733 547.43 344.888 547.439C362.518 537.892 379.583 527.217 396.212 516.15C445.68 483.137 492.819 445.871 546.857 420.996C600.894 396.12 664.423 384.677 719.967 405.983C801.999 437.459 847.744 531.291 930.417 561.033C977.48 577.958 1032.86 572.63 1080 584.952V185.658V2.75195C1071.83 12.5551 1063.77 22.4523 1055.55 31.9736C1022.17 70.6829 976.504 107.522 925.727 101.177" fill="#69C6F9"/>
<path fill-rule="evenodd" clip-rule="evenodd" d="M98.9775 43.913C109.231 41.6159 119.218 38.5159 128.992 34.8356C158.364 23.7683 185.879 7.41547 213.215 -8.39092C213.934 -8.80084 214.644 -9.21951 215.363 -9.63787C252.498 -31.0632 291.413 -51.9249 334.025 -56.8949C374.189 -61.5746 414.431 -51.7712 453.953 -43.2318C533.854 -25.9651 616.511 -13.5999 697.165 -26.9559C754.309 -36.4088 810.709 -60.5414 853.158 -98.9941H192.298H0V-18.1856V32.4273C0.0512576 32.4617 0.111266 32.4957 0.162524 32.5298C29.6291 49.3438 66.4045 51.2141 98.9775 43.913" fill="#BB262C"/>
<path fill-rule="evenodd" clip-rule="evenodd" d="M1006.23 88.3519C1006.23 107.13 990.969 122.347 972.149 122.347C953.329 122.347 938.069 107.13 938.069 88.3519C938.069 69.5651 953.329 54.3477 972.149 54.3477C990.969 54.3477 1006.23 69.5651 1006.23 88.3519" fill="#004CBA"/>
<path fill-rule="evenodd" clip-rule="evenodd" d="M124.165 212.298C173.204 223.596 218.162 247.925 265.857 263.987C291.918 272.757 319.972 278.88 347.393 278.94C370.158 278.982 392.478 274.841 412.847 264.576C448.45 246.635 475.546 211.308 514.666 203.622C541.754 198.302 570.724 207.303 597.819 206.415C587.789 194.357 575.671 184.067 561.977 176.382C523.413 154.742 473.655 154.469 434.86 175.69C421.491 182.999 409.176 192.734 394.49 196.825C379.812 200.907 361.249 197.184 354.539 183.529C349.045 172.342 353.427 158.636 360.676 148.492C367.924 138.364 377.809 130.328 385.135 120.243C399.736 100.116 402.569 72.0896 392.29 49.4686C382.012 26.8391 359.015 10.4947 334.23 8.18921C299.423 4.95264 265.9 25.0713 232.702 6.68606C225.556 2.72368 219.274 -2.66468 213.215 -8.39453C185.879 7.41186 158.373 23.765 128.992 34.832C119.218 38.5126 109.231 41.621 98.9778 43.9093C66.4045 51.2192 29.6378 49.3405 0.162524 32.5265C0.111266 32.4921 0.0512576 32.4581 0 32.4324V222.084C36.0994 202.657 91.1038 204.672 124.165 212.298" fill="#FF2A5B"/>
<path fill-rule="evenodd" clip-rule="evenodd" d="M286.975 251.843C286.975 276.932 266.589 297.272 241.444 297.272C216.3 297.272 195.914 276.932 195.914 251.843C195.914 226.754 216.3 206.413 241.444 206.413C266.589 206.413 286.975 226.754 286.975 251.843" fill="#F5D130"/>
</g>
<defs>
<clipPath id="clip0">
<rect width="1080" height="300" fill="white"/>
</clipPath>
</defs>
</svg>
